<?xml version="1.0" encoding="UTF-8" standalone="no"?>
<!-- Created with Inkscape (http://www.inkscape.org/) -->

<svg
   xmlns:dc="http://purl.org/dc/elements/1.1/"
   xmlns:cc="http://creativecommons.org/ns#"
   xmlns:rdf="http://www.w3.org/1999/02/22-rdf-syntax-ns#"
   xmlns:svg="http://www.w3.org/2000/svg"
   xmlns="http://www.w3.org/2000/svg"
   xmlns:sodipodi="http://sodipodi.sourceforge.net/DTD/sodipodi-0.dtd"
   xmlns:inkscape="http://www.inkscape.org/namespaces/inkscape"
   width="65"
   height="65"
   viewBox="0 0 65.000001 65.000001"
   id="svg2"
   version="1.1"
   inkscape:version="0.91 r13725"
   sodipodi:docname="14B.svg"
   inkscape:export-filename="C:\Users\mwitte\ownCloud\Projekte\Scoreboard\3b.png"
   inkscape:export-xdpi="90"
   inkscape:export-ydpi="90">
  <defs
     id="defs4" />
  <sodipodi:namedview
     id="base"
     pagecolor="#ffffff"
     bordercolor="#666666"
     borderopacity="1.0"
     inkscape:pageopacity="0.0"
     inkscape:pageshadow="2"
     inkscape:zoom="4.2453172"
     inkscape:cx="54.422076"
     inkscape:cy="20.383283"
     inkscape:document-units="px"
     inkscape:current-layer="layer1"
     showgrid="false"
     inkscape:window-width="729"
     inkscape:window-height="632"
     inkscape:window-x="3"
     inkscape:window-y="91"
     inkscape:window-maximized="0"
     units="px" />
  <metadata
     id="metadata7">
    <rdf:RDF>
      <cc:Work
         rdf:about="">
        <dc:format>image/svg+xml</dc:format>
        <dc:type
           rdf:resource="http://purl.org/dc/dcmitype/StillImage" />
        <dc:title />
      </cc:Work>
    </rdf:RDF>
  </metadata>
  <g
     inkscape:label="Ebene 1"
     inkscape:groupmode="layer"
     id="layer1"
     transform="translate(0,-987.36214)">
    <ellipse
       style="fill:none;fill-rule:evenodd;stroke:#000000;stroke-width:0.6590398;stroke-linecap:butt;stroke-linejoin:miter;stroke-miterlimit:4;stroke-dasharray:none;stroke-opacity:1"
       id="path3336"
       cx="32.506405"
       cy="1019.738"
       rx="31.801651"
       ry="31.510637"
       inkscape:export-xdpi="90"
       inkscape:export-ydpi="90" />
    <ellipse
       style="fill:#ffffff;fill-rule:evenodd;stroke:#000000;stroke-width:0.16782355px;stroke-linecap:butt;stroke-linejoin:miter;stroke-opacity:1"
       id="path3338"
       ry="15.88509"
       rx="16.7122"
       cy="1018.8332"
       cx="32.154366" />
    <text
       xml:space="preserve"
       style="font-style:normal;font-variant:normal;font-weight:bold;font-stretch:normal;font-size:22.18519211px;line-height:125%;font-family:sans-serif;-inkscape-font-specification:'sans-serif Bold';letter-spacing:0px;word-spacing:0px;fill:#000000;fill-opacity:1;stroke:none;stroke-width:1px;stroke-linecap:butt;stroke-linejoin:miter;stroke-opacity:1"
       x="15.372561"
       y="1040.5168"
       id="text3342"
       sodipodi:linespacing="125%"
       transform="scale(1.0131369,0.98703348)"><tspan
         sodipodi:role="line"
         id="tspan3344"
         x="15.372561"
         y="1040.5168">14</tspan></text>
    <a
       transform="matrix(0.66088319,0,0,0.65720151,-0.84926823,987.01301)"
       id="a4153">
      <path
         sodipodi:nodetypes="cc"
         inkscape:connector-curvature="0"
         id="path3349"
         d="m 15.882712,16.456454 69.413333,0"
         style="fill:#0000ff;fill-rule:evenodd;stroke:#000000;stroke-width:1.00858378px;stroke-linecap:butt;stroke-linejoin:miter;stroke-opacity:1" />
    </a>
    <path
       style="fill:none;fill-rule:evenodd;stroke:#000000;stroke-width:0.66244298px;stroke-linecap:butt;stroke-linejoin:miter;stroke-opacity:1"
       d="M 7.9625931,1039.7096 57.20621,1039.452"
       id="path3351"
       inkscape:connector-curvature="0" />
    <path
       style="fill:#008000"
       d="m 6.9709161,1038.2739 c -3.0169448,-4.0763 -5.039063,-8.9647 -5.8211825,-14.0723 -0.32837703,-2.1444 -0.33134638,-6.8708 -0.00562,-8.9189 0.9951176,-6.2566 3.5112426,-11.6383 7.6087948,-16.27439 l 0.740328,-0.8376 23.0885571,0.0644 23.088561,0.0644 1.043217,1.22424 c 2.771017,3.25174 5.041858,7.47604 6.25286,11.63164 1.872877,6.4269 1.517514,13.7865 -0.967037,20.0277 -0.899799,2.2602 -2.627414,5.3433 -3.97512,7.0938 l -0.617555,0.8022 -17.623948,0.068 c -9.693172,0.037 -20.860407,0.1004 -24.816076,0.1403 l -7.1921268,0.073 -0.803671,-1.0859 z m 27.8227399,-3.6283 c 1.856434,-0.2804 3.395703,-0.7668 5.118721,-1.6174 1.823019,-0.9001 2.97426,-1.7217 4.41471,-3.1504 3.039279,-3.0147 4.629146,-6.7963 4.634863,-11.0241 0.0053,-4.1521 -1.459191,-7.7815 -4.349131,-10.7757 -3.626039,-3.7569 -8.573179,-5.6033 -13.901181,-5.1881 -1.547263,0.1206 -3.653821,0.5922 -4.989132,1.117 -4.510407,1.7726 -8.153862,5.554 -9.643408,10.0085 -1.024559,3.0639 -0.971427,6.9538 0.136909,10.023 1.55808,4.3147 5.074124,7.8628 9.531197,9.6178 1.05785,0.4166 2.757425,0.8633 3.93046,1.0332 1.239596,0.1796 3.781398,0.1578 5.115992,-0.044 z"
       id="path4158"
       inkscape:connector-curvature="0" />
    <path
       style="fill:#ffffff;stroke-width:1;stroke-miterlimit:4;stroke-dasharray:none"
       d="m 10.913009,9.8527281 c 0.337472,-0.5460405 4.175164,-3.338742 6.10686,-4.4439829 2.54656,-1.4570412 5.09126,-2.4539411 8.381996,-3.2836919 2.237394,-0.5641533 2.900215,-0.6242238 6.948833,-0.6297628 3.508197,-0.0048 4.908269,0.088658 6.477726,0.4324007 5.274569,1.1552373 10.823763,3.9024039 14.251531,7.0553174 l 1.177233,1.0828364 -21.743726,0.0094 C 18.30853,10.081308 10.81941,10.004175 10.913009,9.8527281 Z"
       id="path3435"
       inkscape:connector-curvature="0"
       transform="translate(0,987.36214)" />
    <path
       style="fill:#ffffff;stroke-width:1;stroke-miterlimit:4;stroke-dasharray:none"
       d="M 29.877385,63.288428 C 22.645445,62.712896 16.089713,59.756986 10.838795,54.70413 l -2.0434627,-1.966385 13.4467977,-0.009 c 7.395738,-0.0049 18.093936,-0.07954 23.773771,-0.165774 l 10.326971,-0.156783 -0.625691,0.820325 c -0.839975,1.101264 -4.075185,3.847748 -6.013836,5.105361 -5.786708,3.753861 -12.825732,5.513637 -19.82596,4.956545 z"
       id="path3437"
       inkscape:connector-curvature="0"
       transform="translate(0,987.36214)" />
  </g>
</svg>
